<?xml version="1.0" standalone="no"?>
<!DOCTYPE svg PUBLIC "-//W3C//DTD SVG 20010904//EN"
 "http://www.w3.org/TR/2001/REC-SVG-20010904/DTD/svg10.dtd">
<svg version="1.0" xmlns="http://www.w3.org/2000/svg"
 width="512.000000pt" height="512.000000pt" viewBox="0 0 512.000000 512.000000"
 preserveAspectRatio="xMidYMid meet">

<g transform="translate(0.000000,512.000000) scale(0.100000,-0.100000)"
fill="#000000" stroke="none">
<path d="M2390 5109 c-584 -65 -1086 -463 -1285 -1019 -59 -164 -87 -326 -86
-513 0 -330 85 -594 295 -915 111 -168 129 -258 72 -356 -80 -137 -365 -235
-683 -236 -153 0 -280 -54 -388 -164 -114 -116 -161 -239 -153 -401 10 -184
102 -337 263 -434 117 -71 271 -88 494 -55 96 14 254 45 306 61 11 3 -29 -32
-89 -78 -121 -93 -175 -154 -219 -249 -26 -56 -31 -80 -35 -172 -4 -95 -2
-117 21 -191 53 -167 171 -291 342 -357 87 -34 245 -34 330 0 127 50 287 163
439 309 124 121 209 221 374 441 72 96 140 186 152 200 l20 25 20 -25 c12 -14
80 -104 152 -200 165 -220 250 -320 374 -441 153 -148 316 -262 439 -308 267
-100 582 68 672 356 23 74 25 96 21 191 -4 92 -9 116 -35 172 -44 95 -98 156
-219 249 -60 46 -100 81 -89 78 52 -16 210 -47 306 -61 284 -42 457 -3 596
134 104 102 154 212 161 355 8 162 -39 285 -153 401 -108 110 -235 164 -387
164 -321 1 -603 98 -684 236 -57 98 -39 188 72 356 211 323 295 584 295 918 0
237 -43 430 -143 650 -135 293 -387 556 -681 711 -270 141 -586 202 -887 168z
m361 -319 c95 -14 231 -55 328 -101 280 -131 504 -366 619 -649 132 -324 122
-665 -28 -987 -21 -44 -75 -139 -121 -210 -120 -184 -159 -291 -159 -430 0
-144 55 -269 170 -383 109 -109 261 -185 460 -228 129 -28 163 -32 325 -41
187 -11 236 -35 284 -141 39 -85 21 -169 -49 -241 -57 -60 -104 -74 -220 -65
-159 11 -425 69 -579 126 -110 40 -165 46 -235 26 -135 -39 -220 -181 -187
-311 22 -88 50 -116 289 -296 126 -95 239 -187 252 -206 66 -96 14 -255 -103
-315 -64 -32 -122 -28 -198 15 -203 113 -348 259 -637 643 -216 287 -267 329
-402 329 -135 0 -186 -42 -402 -329 -289 -384 -434 -530 -637 -643 -76 -43
-134 -47 -198 -15 -117 60 -169 219 -103 315 13 19 126 111 252 206 239 180
267 208 289 296 33 130 -52 272 -187 311 -70 20 -126 14 -238 -27 -157 -57
-417 -114 -576 -125 -116 -9 -163 5 -220 65 -70 72 -88 156 -49 241 48 106 97
130 284 141 162 9 196 13 325 41 199 43 351 119 460 228 115 114 170 239 170
383 0 139 -39 246 -159 430 -171 264 -241 479 -241 736 0 211 64 447 167 616
271 445 739 667 1254 595z"/>
<path d="M3027 3596 c-74 -20 -119 -65 -143 -144 -40 -132 57 -262 196 -262
64 0 109 20 153 70 136 149 -10 387 -206 336z"/>
<path d="M1955 3586 c-49 -21 -101 -87 -115 -144 -46 -193 192 -333 339 -199
76 70 80 218 8 295 -53 57 -160 79 -232 48z"/>
</g>
</svg>
